# xmcd CD database file
#
# Track frame offsets:
#	150
#	29872
#	44193
#	60761
#	93988
#	116426
#	133661
#	149922
#	168240
#	187102
#	203053
#	224363
#	255169
#
# Disc length: 3697 seconds
#
# Revision: 1
# Processed by: cddbd v1.5.2PL0 Copyright (c) Steve Scherf et al.
# Submitted via: CDex 1.70beta2
#
DISCID=c60e6f0d
DTITLE=Jean-Christophe Cholet and Matthieu Michel - Extended Whispers
DYEAR=2019
DGENRE=Jazz
TTITLE0=Tara
TTITLE1=Mondstein
TTITLE2=Feu Follet
TTITLE3=La Maison des étoiles
TTITLE4=Tonal
TTITLE5=Small Song
TTITLE6=Yeong Gam
TTITLE7=Politics
TTITLE8=Relax and Easy
TTITLE9=Momo
TTITLE10=Lua
TTITLE11=Tamia
TTITLE12=Choral 2
EXTD=YEAR: 2019
EXTT0=
EXTT1=
EXTT2=
EXTT3=
EXTT4=
EXTT5=
EXTT6=
EXTT7=
EXTT8=
EXTT9=
EXTT10=
EXTT11=
EXTT12=
PLAYORDER=
